# xmcd
# 
# Track frame offsets:
#     151
#     10261
#     20167
#     24533
#     35554
#     65344
#     75447
#     81573
#     90928
#     107927
#     112777
#     123623
#     146727
# 
# Disc length: 2095
# 
# Revision: 1
# Processed by: cddbd v1.5PL3 Copyright (c) Steve Scherf et al.
# Submitted via: BonkEnc v1.0beta2
# 
DISCID=a5082d0d
DTITLE=James Brown - The Godfather of Soul LIVE!
DYEAR=1998
DGENRE=Oldies
TTITLE0=(Give It Up) Turn It Loose
TTITLE1=Get Up Off That Thang
TTITLE2=Hot Pants
TTITLE3=I Feel Good (I Got You)
TTITLE4=It's A Man's Man's World
TTITLE5=Please, Please, Please
TTITLE6=Cold Sweat
TTITLE7=Get On The Good Foot
TTITLE8=Gonna Have A Funky Good Time
TTITLE9=I Can't Stand It
TTITLE10=I Got The Feeling
TTITLE11=It's Too Funky In Here
TTITLE12=Papa's Got A Brand New Bag
EXTD=
EXTT0=
EXTT1=
EXTT2=
EXTT3=
EXTT4=
EXTT5=
EXTT6=
EXTT7=
EXTT8=
EXTT9=
EXTT10=
EXTT11=
EXTT12=
PLAYORDER=
